<?xml version="1.0" encoding="UTF-8"?>
<svg width="2116px" height="527px" viewBox="0 0 2116 527" version="1.1" xmlns="http://www.w3.org/2000/svg" xmlns:xlink="http://www.w3.org/1999/xlink">
    <!-- Generator: Sketch 46.1 (44463) - http://www.bohemiancoding.com/sketch -->
    <title>Artboard Copy</title>
    <desc>Created with Sketch.</desc>
    <defs></defs>
    <g id="Page-1" stroke="none" stroke-width="1" fill="none" fill-rule="evenodd">
        <g id="Artboard-Copy" fill-rule="nonzero">
            <polygon id="XMLID_274_" fill="#FFFFFF" points="271.311703 525.903864 271.311703 309.436233 99.7469498 309.436233 99.7469498 525.903864 7.10542736e-15 525.903864 7.10542736e-15 8 99.7469498 8 99.7469498 218.398445 271.311703 218.398445 271.311703 8 371.058653 8 371.058653 525.903864"></polygon>
            <polygon id="XMLID_272_" fill="#FFFFFF" points="1096.40786 99.0377885 1096.40786 525.903864 996.660913 525.903864 996.660913 99.0377885 863 99.0377885 863 8 1228.07384 8 1228.07384 99.0377885"></polygon>
            <path d="M1462.52427,525.996112 C1408.66091,525.996112 1362.77732,507.788554 1324.87347,469.350377 C1302.92915,447.096695 1288.96457,420.796889 1282.97976,392.474022 C1276.99494,364.151154 1275,319.643791 1275,262.998056 C1275,206.352321 1276.99494,163.868019 1282.97976,133.52209 C1288.96457,103.17616 1302.92915,78.8994167 1324.87347,56.6457351 C1362.77732,18.2075577 1408.66091,0 1462.52427,0 C1560.27628,0 1632.09408,58.6687971 1650.04853,163.868019 L1548.30664,163.868019 C1538.33195,119.360656 1510.4028,91.0377885 1462.52427,91.0377885 C1434.59512,91.0377885 1414.64573,99.1300364 1398.68622,117.337594 C1378.73683,139.591276 1372.75201,163.868019 1372.75201,262.998056 C1372.75201,364.151154 1376.74189,386.404836 1398.68622,408.658517 C1414.64573,426.866075 1434.59512,434.958323 1462.52427,434.958323 C1510.4028,434.958323 1538.33195,406.635456 1548.30664,362.128092 L1650.04853,362.128092 C1634.08902,467.327315 1560.27628,525.996112 1462.52427,525.996112 Z" id="XMLID_270_" fill="#FFFFFF"></path>
            <polygon id="XMLID_268_" fill="#FFFFFF" points="2015.3117 525.903864 2015.3117 309.436233 1843.74695 309.436233 1843.74695 525.903864 1744 525.903864 1744 8 1843.74695 8 1843.74695 218.398445 2015.3117 218.398445 2015.3117 8 2115.05865 8 2115.05865 525.903864"></polygon>
            <polygon id="XMLID_266_" fill="#34CE8B" points="533.736828 525.903864 430 525.903864 615.529327 8 709.291459 8"></polygon>
            <polygon id="XMLID_265_" fill="#FFFFFF" points="764.772255 174 675 432.951932 756.792499 432.951932 786.716584 526.012782 890.453411 526.012782"></polygon>
        </g>
    </g>
</svg>